%
M48
M72
T01C0.0276
T02C0.0315
T03C0.0320
T04C0.0394
T05C0.0400
%
T01
X3709Y13580
X5678Y13580
T02
X6243Y2904
X8054Y2904
X8054Y5463
X9243Y5904
X11054Y5904
X11054Y8463
X9204Y8463
X8054Y8904
X6243Y8904
X5054Y8463
X3204Y8463
X3243Y5904
X5054Y5904
X6204Y5463
X6204Y11463
X8054Y11463
X14133Y8456
X15944Y8456
X15983Y5897
X14133Y5897
T03
X2093Y12380
X2093Y11380
X2093Y10180
X3093Y10180
X4093Y10180
X5093Y10180
X6093Y10180
X7093Y10180
X8093Y10180
X9093Y10180
X10093Y10180
X11093Y10180
X12093Y10180
X13093Y10180
X14093Y10180
X15093Y10180
X17093Y9180
X17093Y8180
X17093Y7180
X17093Y6180
X17093Y5180
X17093Y4180
X17093Y3180
X17093Y2180
X15543Y2180
X15543Y3180
X15093Y4180
X14093Y4180
X13093Y4180
X12093Y4180
X11093Y4180
X10093Y4180
X9093Y4180
X8093Y4180
X7093Y4180
X6093Y4180
X5093Y4180
X4993Y3280
X4093Y4180
X3093Y4180
X2093Y4180
X4993Y2280
X9093Y3080
X10093Y3080
X10093Y11480
X9093Y11480
X9093Y13880
X10093Y13880
X16293Y13380
X17293Y13380
T04
X2093Y15180
X11093Y11480
X12093Y11480
X13093Y11480
X14093Y11480
X15093Y11480
X16093Y11480
X17093Y15180
X17093Y1180
X12993Y1180
X11993Y1180
X10993Y1180
X9993Y1180
X8993Y1180
X7993Y1180
X6993Y1180
X5993Y1180
X2093Y1180
T05
X12714Y13955
X13698Y13955
X14682Y13955
M30
