G75*
%MOIN*%
%OFA0B0*%
%FSLAX24Y24*%
%IPPOS*%
%LPD*%
%AMOC8*
5,1,8,0,0,1.08239X$1,22.5*
%
%ADD10C,0.0000*%
%ADD11C,0.0434*%
%ADD12C,0.0560*%
%ADD13C,0.0640*%
%ADD14OC8,0.0560*%
%ADD15OC8,0.0670*%
%ADD16C,0.0670*%
%ADD17C,0.0700*%
%ADD18C,0.0634*%
%ADD19C,0.0516*%
D10*
X001093Y000180D02*
X001093Y016479D01*
X018022Y016479D01*
X018022Y000180D01*
X001093Y000180D01*
X001881Y001164D02*
X001883Y001191D01*
X001889Y001218D01*
X001898Y001244D01*
X001911Y001268D01*
X001927Y001291D01*
X001946Y001310D01*
X001968Y001327D01*
X001992Y001341D01*
X002017Y001351D01*
X002044Y001358D01*
X002071Y001361D01*
X002099Y001360D01*
X002126Y001355D01*
X002152Y001347D01*
X002176Y001335D01*
X002199Y001319D01*
X002220Y001301D01*
X002237Y001280D01*
X002252Y001256D01*
X002263Y001231D01*
X002271Y001205D01*
X002275Y001178D01*
X002275Y001150D01*
X002271Y001123D01*
X002263Y001097D01*
X002252Y001072D01*
X002237Y001048D01*
X002220Y001027D01*
X002199Y001009D01*
X002177Y000993D01*
X002152Y000981D01*
X002126Y000973D01*
X002099Y000968D01*
X002071Y000967D01*
X002044Y000970D01*
X002017Y000977D01*
X001992Y000987D01*
X001968Y001001D01*
X001946Y001018D01*
X001927Y001037D01*
X001911Y001060D01*
X001898Y001084D01*
X001889Y001110D01*
X001883Y001137D01*
X001881Y001164D01*
X001881Y015495D02*
X001883Y015522D01*
X001889Y015549D01*
X001898Y015575D01*
X001911Y015599D01*
X001927Y015622D01*
X001946Y015641D01*
X001968Y015658D01*
X001992Y015672D01*
X002017Y015682D01*
X002044Y015689D01*
X002071Y015692D01*
X002099Y015691D01*
X002126Y015686D01*
X002152Y015678D01*
X002176Y015666D01*
X002199Y015650D01*
X002220Y015632D01*
X002237Y015611D01*
X002252Y015587D01*
X002263Y015562D01*
X002271Y015536D01*
X002275Y015509D01*
X002275Y015481D01*
X002271Y015454D01*
X002263Y015428D01*
X002252Y015403D01*
X002237Y015379D01*
X002220Y015358D01*
X002199Y015340D01*
X002177Y015324D01*
X002152Y015312D01*
X002126Y015304D01*
X002099Y015299D01*
X002071Y015298D01*
X002044Y015301D01*
X002017Y015308D01*
X001992Y015318D01*
X001968Y015332D01*
X001946Y015349D01*
X001927Y015368D01*
X001911Y015391D01*
X001898Y015415D01*
X001889Y015441D01*
X001883Y015468D01*
X001881Y015495D01*
X016841Y015495D02*
X016843Y015522D01*
X016849Y015549D01*
X016858Y015575D01*
X016871Y015599D01*
X016887Y015622D01*
X016906Y015641D01*
X016928Y015658D01*
X016952Y015672D01*
X016977Y015682D01*
X017004Y015689D01*
X017031Y015692D01*
X017059Y015691D01*
X017086Y015686D01*
X017112Y015678D01*
X017136Y015666D01*
X017159Y015650D01*
X017180Y015632D01*
X017197Y015611D01*
X017212Y015587D01*
X017223Y015562D01*
X017231Y015536D01*
X017235Y015509D01*
X017235Y015481D01*
X017231Y015454D01*
X017223Y015428D01*
X017212Y015403D01*
X017197Y015379D01*
X017180Y015358D01*
X017159Y015340D01*
X017137Y015324D01*
X017112Y015312D01*
X017086Y015304D01*
X017059Y015299D01*
X017031Y015298D01*
X017004Y015301D01*
X016977Y015308D01*
X016952Y015318D01*
X016928Y015332D01*
X016906Y015349D01*
X016887Y015368D01*
X016871Y015391D01*
X016858Y015415D01*
X016849Y015441D01*
X016843Y015468D01*
X016841Y015495D01*
X016841Y001164D02*
X016843Y001191D01*
X016849Y001218D01*
X016858Y001244D01*
X016871Y001268D01*
X016887Y001291D01*
X016906Y001310D01*
X016928Y001327D01*
X016952Y001341D01*
X016977Y001351D01*
X017004Y001358D01*
X017031Y001361D01*
X017059Y001360D01*
X017086Y001355D01*
X017112Y001347D01*
X017136Y001335D01*
X017159Y001319D01*
X017180Y001301D01*
X017197Y001280D01*
X017212Y001256D01*
X017223Y001231D01*
X017231Y001205D01*
X017235Y001178D01*
X017235Y001150D01*
X017231Y001123D01*
X017223Y001097D01*
X017212Y001072D01*
X017197Y001048D01*
X017180Y001027D01*
X017159Y001009D01*
X017137Y000993D01*
X017112Y000981D01*
X017086Y000973D01*
X017059Y000968D01*
X017031Y000967D01*
X017004Y000970D01*
X016977Y000977D01*
X016952Y000987D01*
X016928Y001001D01*
X016906Y001018D01*
X016887Y001037D01*
X016871Y001060D01*
X016858Y001084D01*
X016849Y001110D01*
X016843Y001137D01*
X016841Y001164D01*
D11*
X017038Y001164D03*
X017038Y015495D03*
X002078Y015495D03*
X002078Y001164D03*
D12*
X002093Y003920D02*
X002093Y004440D01*
X003093Y004440D02*
X003093Y003920D01*
X004093Y003920D02*
X004093Y004440D01*
X005093Y004440D02*
X005093Y003920D01*
X006093Y003920D02*
X006093Y004440D01*
X007093Y004440D02*
X007093Y003920D01*
X008093Y003920D02*
X008093Y004440D01*
X009093Y004440D02*
X009093Y003920D01*
X010093Y003920D02*
X010093Y004440D01*
X011093Y004440D02*
X011093Y003920D01*
X012093Y003920D02*
X012093Y004440D01*
X013093Y004440D02*
X013093Y003920D01*
X014093Y003920D02*
X014093Y004440D01*
X015093Y004440D02*
X015093Y003920D01*
X015093Y009920D02*
X015093Y010440D01*
X014093Y010440D02*
X014093Y009920D01*
X013093Y009920D02*
X013093Y010440D01*
X012093Y010440D02*
X012093Y009920D01*
X011093Y009920D02*
X011093Y010440D01*
X010093Y010440D02*
X010093Y009920D01*
X009093Y009920D02*
X009093Y010440D01*
X008093Y010440D02*
X008093Y009920D01*
X007093Y009920D02*
X007093Y010440D01*
X006093Y010440D02*
X006093Y009920D01*
X005093Y009920D02*
X005093Y010440D01*
X004093Y010440D02*
X004093Y009920D01*
X003093Y009920D02*
X003093Y010440D01*
X002093Y010440D02*
X002093Y009920D01*
D13*
X012714Y013655D02*
X012714Y014255D01*
X013698Y014255D02*
X013698Y013655D01*
X014682Y013655D02*
X014682Y014255D01*
D14*
X010093Y013880D03*
X009093Y013880D03*
X009093Y011480D03*
X010093Y011480D03*
X017093Y009180D03*
X017093Y008180D03*
X017093Y007180D03*
X017093Y006180D03*
X017093Y005180D03*
X017093Y004180D03*
X017093Y003180D03*
X017093Y002180D03*
X015543Y002180D03*
X015543Y003180D03*
X010093Y003080D03*
X009093Y003080D03*
X004993Y003280D03*
X004993Y002280D03*
X002093Y011380D03*
X002093Y012380D03*
D15*
X017293Y013380D03*
D16*
X016293Y013380D03*
D17*
X015944Y008456D03*
X014133Y008456D03*
X014133Y005897D03*
X015983Y005897D03*
X011054Y005904D03*
X009243Y005904D03*
X008054Y005463D03*
X006204Y005463D03*
X005054Y005904D03*
X003243Y005904D03*
X003204Y008463D03*
X005054Y008463D03*
X006243Y008904D03*
X008054Y008904D03*
X009204Y008463D03*
X011054Y008463D03*
X008054Y011463D03*
X006204Y011463D03*
X006243Y002904D03*
X008054Y002904D03*
D18*
X007993Y001180D03*
X006993Y001180D03*
X005993Y001180D03*
X008993Y001180D03*
X009993Y001180D03*
X010993Y001180D03*
X011993Y001180D03*
X012993Y001180D03*
X013093Y011480D03*
X012093Y011480D03*
X011093Y011480D03*
X014093Y011480D03*
X015093Y011480D03*
X016093Y011480D03*
D19*
X005678Y013580D03*
X003709Y013580D03*
M02*
