G75*
%MOIN*%
%OFA0B0*%
%FSLAX24Y24*%
%IPPOS*%
%LPD*%
%AMOC8*
5,1,8,0,0,1.08239X$1,22.5*
%
%ADD10C,0.0000*%
%ADD11C,0.0070*%
%ADD12C,0.0050*%
%ADD13C,0.0040*%
%ADD14C,0.0030*%
%ADD15R,0.3740X0.0300*%
%ADD16R,0.0520X0.0200*%
%ADD17R,0.0300X0.0200*%
%ADD18C,0.0060*%
%ADD19C,0.0120*%
%ADD20C,0.0240*%
D10*
X001093Y000180D02*
X001093Y016479D01*
X018022Y016479D01*
X018022Y000180D01*
X001093Y000180D01*
X001896Y001180D02*
X001898Y001207D01*
X001904Y001234D01*
X001913Y001260D01*
X001926Y001284D01*
X001942Y001307D01*
X001961Y001326D01*
X001983Y001343D01*
X002007Y001357D01*
X002032Y001367D01*
X002059Y001374D01*
X002086Y001377D01*
X002114Y001376D01*
X002141Y001371D01*
X002167Y001363D01*
X002191Y001351D01*
X002214Y001335D01*
X002235Y001317D01*
X002252Y001296D01*
X002267Y001272D01*
X002278Y001247D01*
X002286Y001221D01*
X002290Y001194D01*
X002290Y001166D01*
X002286Y001139D01*
X002278Y001113D01*
X002267Y001088D01*
X002252Y001064D01*
X002235Y001043D01*
X002214Y001025D01*
X002192Y001009D01*
X002167Y000997D01*
X002141Y000989D01*
X002114Y000984D01*
X002086Y000983D01*
X002059Y000986D01*
X002032Y000993D01*
X002007Y001003D01*
X001983Y001017D01*
X001961Y001034D01*
X001942Y001053D01*
X001926Y001076D01*
X001913Y001100D01*
X001904Y001126D01*
X001898Y001153D01*
X001896Y001180D01*
X001896Y015180D02*
X001898Y015207D01*
X001904Y015234D01*
X001913Y015260D01*
X001926Y015284D01*
X001942Y015307D01*
X001961Y015326D01*
X001983Y015343D01*
X002007Y015357D01*
X002032Y015367D01*
X002059Y015374D01*
X002086Y015377D01*
X002114Y015376D01*
X002141Y015371D01*
X002167Y015363D01*
X002191Y015351D01*
X002214Y015335D01*
X002235Y015317D01*
X002252Y015296D01*
X002267Y015272D01*
X002278Y015247D01*
X002286Y015221D01*
X002290Y015194D01*
X002290Y015166D01*
X002286Y015139D01*
X002278Y015113D01*
X002267Y015088D01*
X002252Y015064D01*
X002235Y015043D01*
X002214Y015025D01*
X002192Y015009D01*
X002167Y014997D01*
X002141Y014989D01*
X002114Y014984D01*
X002086Y014983D01*
X002059Y014986D01*
X002032Y014993D01*
X002007Y015003D01*
X001983Y015017D01*
X001961Y015034D01*
X001942Y015053D01*
X001926Y015076D01*
X001913Y015100D01*
X001904Y015126D01*
X001898Y015153D01*
X001896Y015180D01*
X016896Y015180D02*
X016898Y015207D01*
X016904Y015234D01*
X016913Y015260D01*
X016926Y015284D01*
X016942Y015307D01*
X016961Y015326D01*
X016983Y015343D01*
X017007Y015357D01*
X017032Y015367D01*
X017059Y015374D01*
X017086Y015377D01*
X017114Y015376D01*
X017141Y015371D01*
X017167Y015363D01*
X017191Y015351D01*
X017214Y015335D01*
X017235Y015317D01*
X017252Y015296D01*
X017267Y015272D01*
X017278Y015247D01*
X017286Y015221D01*
X017290Y015194D01*
X017290Y015166D01*
X017286Y015139D01*
X017278Y015113D01*
X017267Y015088D01*
X017252Y015064D01*
X017235Y015043D01*
X017214Y015025D01*
X017192Y015009D01*
X017167Y014997D01*
X017141Y014989D01*
X017114Y014984D01*
X017086Y014983D01*
X017059Y014986D01*
X017032Y014993D01*
X017007Y015003D01*
X016983Y015017D01*
X016961Y015034D01*
X016942Y015053D01*
X016926Y015076D01*
X016913Y015100D01*
X016904Y015126D01*
X016898Y015153D01*
X016896Y015180D01*
X016896Y001180D02*
X016898Y001207D01*
X016904Y001234D01*
X016913Y001260D01*
X016926Y001284D01*
X016942Y001307D01*
X016961Y001326D01*
X016983Y001343D01*
X017007Y001357D01*
X017032Y001367D01*
X017059Y001374D01*
X017086Y001377D01*
X017114Y001376D01*
X017141Y001371D01*
X017167Y001363D01*
X017191Y001351D01*
X017214Y001335D01*
X017235Y001317D01*
X017252Y001296D01*
X017267Y001272D01*
X017278Y001247D01*
X017286Y001221D01*
X017290Y001194D01*
X017290Y001166D01*
X017286Y001139D01*
X017278Y001113D01*
X017267Y001088D01*
X017252Y001064D01*
X017235Y001043D01*
X017214Y001025D01*
X017192Y001009D01*
X017167Y000997D01*
X017141Y000989D01*
X017114Y000984D01*
X017086Y000983D01*
X017059Y000986D01*
X017032Y000993D01*
X017007Y001003D01*
X016983Y001017D01*
X016961Y001034D01*
X016942Y001053D01*
X016926Y001076D01*
X016913Y001100D01*
X016904Y001126D01*
X016898Y001153D01*
X016896Y001180D01*
D11*
X000998Y006215D02*
X000998Y006425D01*
X000998Y006320D02*
X000368Y006320D01*
X000368Y006215D02*
X000368Y006425D01*
X000473Y006645D02*
X000893Y006645D01*
X000998Y006750D01*
X000998Y006960D01*
X000893Y007065D01*
X000998Y007289D02*
X000998Y007710D01*
X000998Y007499D02*
X000368Y007499D01*
X000578Y007289D01*
X000473Y007065D02*
X000368Y006960D01*
X000368Y006750D01*
X000473Y006645D01*
D12*
X001593Y006680D02*
X001593Y004680D01*
X001593Y004430D01*
X001585Y004424D02*
X015601Y004424D01*
X015601Y009936D01*
X001585Y009936D01*
X001585Y007647D01*
X001593Y007680D02*
X001637Y007678D01*
X001680Y007672D01*
X001722Y007663D01*
X001764Y007650D01*
X001804Y007633D01*
X001843Y007613D01*
X001880Y007590D01*
X001914Y007563D01*
X001947Y007534D01*
X001976Y007501D01*
X002003Y007467D01*
X002026Y007430D01*
X002046Y007391D01*
X002063Y007351D01*
X002076Y007309D01*
X002085Y007267D01*
X002091Y007224D01*
X002093Y007180D01*
X002091Y007136D01*
X002085Y007093D01*
X002076Y007051D01*
X002063Y007009D01*
X002046Y006969D01*
X002026Y006930D01*
X002003Y006893D01*
X001976Y006859D01*
X001947Y006826D01*
X001914Y006797D01*
X001880Y006770D01*
X001843Y006747D01*
X001804Y006727D01*
X001764Y006710D01*
X001722Y006697D01*
X001680Y006688D01*
X001637Y006682D01*
X001593Y006680D01*
X002815Y003474D02*
X003115Y003174D01*
X003040Y003249D02*
X003265Y003474D01*
X003515Y003324D02*
X003515Y003174D01*
X003515Y003249D02*
X003965Y003249D01*
X003965Y003174D02*
X003965Y003324D01*
X003890Y003013D02*
X003815Y003013D01*
X003740Y002938D01*
X003740Y002788D01*
X003665Y002713D01*
X003590Y002713D01*
X003515Y002788D01*
X003515Y002938D01*
X003590Y003013D01*
X003890Y003013D02*
X003965Y002938D01*
X003965Y002788D01*
X003890Y002713D01*
X003890Y002553D02*
X003590Y002553D01*
X003515Y002478D01*
X003515Y002328D01*
X003590Y002253D01*
X003890Y002253D01*
X003965Y002328D01*
X003965Y002478D01*
X003890Y002553D01*
X003965Y002093D02*
X003515Y002093D01*
X003665Y001943D01*
X003515Y001792D01*
X003965Y001792D01*
X003265Y001867D02*
X003190Y001792D01*
X003265Y001867D02*
X003265Y002018D01*
X003190Y002093D01*
X003115Y002093D01*
X003040Y002018D01*
X003040Y001867D01*
X002965Y001792D01*
X002890Y001792D01*
X002815Y001867D01*
X002815Y002018D01*
X002890Y002093D01*
X002890Y002253D02*
X003190Y002253D01*
X003265Y002328D01*
X003265Y002478D01*
X003190Y002553D01*
X003265Y002713D02*
X003265Y003013D01*
X003265Y003174D02*
X002815Y003174D01*
X002565Y002938D02*
X002490Y003013D01*
X002190Y003013D01*
X002115Y002938D01*
X002115Y002713D01*
X002565Y002713D01*
X002565Y002938D01*
X002815Y002713D02*
X003265Y002713D01*
X002890Y002553D02*
X002815Y002478D01*
X002815Y002328D01*
X002890Y002253D01*
X002565Y002253D02*
X002565Y002553D01*
X002340Y002403D02*
X002340Y002253D01*
X002115Y002253D02*
X002565Y002253D01*
X002565Y002093D02*
X002565Y001792D01*
X002115Y001792D01*
X002115Y002253D02*
X002115Y002553D01*
X004718Y001646D02*
X004793Y001496D01*
X004943Y001345D01*
X004943Y001571D01*
X005018Y001646D01*
X005093Y001646D01*
X005168Y001571D01*
X005168Y001420D01*
X005093Y001345D01*
X004943Y001345D01*
X004943Y001185D02*
X004793Y001185D01*
X004718Y001110D01*
X004718Y000885D01*
X005168Y000885D01*
X005018Y000885D02*
X005018Y001110D01*
X004943Y001185D01*
X005018Y001035D02*
X005168Y001185D01*
X009268Y002130D02*
X009343Y002055D01*
X009494Y002055D01*
X009569Y002130D01*
X009729Y002130D02*
X009804Y002055D01*
X009954Y002055D01*
X010029Y002130D01*
X010029Y002205D01*
X009954Y002280D01*
X009879Y002280D01*
X009954Y002280D02*
X010029Y002355D01*
X010029Y002430D01*
X009954Y002505D01*
X009804Y002505D01*
X009729Y002430D01*
X009569Y002430D02*
X009494Y002505D01*
X009343Y002505D01*
X009268Y002430D01*
X009268Y002130D01*
X010815Y002092D02*
X010815Y002318D01*
X010890Y002393D01*
X011190Y002393D01*
X011265Y002318D01*
X011265Y002092D01*
X010815Y002092D01*
X010890Y002553D02*
X011190Y002553D01*
X011265Y002628D01*
X011265Y002778D01*
X011190Y002853D01*
X010890Y002853D02*
X010815Y002778D01*
X010815Y002628D01*
X010890Y002553D01*
X011515Y002628D02*
X011590Y002553D01*
X011665Y002553D01*
X011740Y002628D01*
X011740Y002778D01*
X011815Y002853D01*
X011890Y002853D01*
X011965Y002778D01*
X011965Y002628D01*
X011890Y002553D01*
X011965Y002393D02*
X011815Y002243D01*
X011815Y002318D02*
X011815Y002092D01*
X011965Y002092D02*
X011515Y002092D01*
X011515Y002318D01*
X011590Y002393D01*
X011740Y002393D01*
X011815Y002318D01*
X011515Y002628D02*
X011515Y002778D01*
X011590Y002853D01*
X011515Y003013D02*
X011515Y003313D01*
X011515Y003163D02*
X011965Y003163D01*
X012215Y003013D02*
X012665Y003013D01*
X012665Y003313D01*
X012915Y003238D02*
X012915Y003013D01*
X013365Y003013D01*
X013365Y003238D01*
X013290Y003313D01*
X012990Y003313D01*
X012915Y003238D01*
X012915Y002853D02*
X013365Y002853D01*
X012915Y002553D01*
X013365Y002553D01*
X013290Y002393D02*
X013140Y002393D01*
X013140Y002243D01*
X013290Y002393D02*
X013365Y002318D01*
X013365Y002167D01*
X013290Y002092D01*
X012990Y002092D01*
X012915Y002167D01*
X012915Y002318D01*
X012990Y002393D01*
X012665Y002318D02*
X012665Y002167D01*
X012590Y002092D01*
X012440Y002167D02*
X012440Y002318D01*
X012515Y002393D01*
X012590Y002393D01*
X012665Y002318D01*
X012590Y002553D02*
X012665Y002628D01*
X012665Y002778D01*
X012590Y002853D01*
X012440Y003013D02*
X012440Y003163D01*
X012290Y002853D02*
X012215Y002778D01*
X012215Y002628D01*
X012290Y002553D01*
X012590Y002553D01*
X012290Y002393D02*
X012215Y002318D01*
X012215Y002167D01*
X012290Y002092D01*
X012365Y002092D01*
X012440Y002167D01*
X012215Y003013D02*
X012215Y003313D01*
X013615Y003238D02*
X013615Y003088D01*
X013690Y003013D01*
X013990Y003013D01*
X014065Y003088D01*
X014065Y003238D01*
X013990Y003313D01*
X013690Y003313D02*
X013615Y003238D01*
X013690Y002853D02*
X013615Y002778D01*
X013615Y002628D01*
X013690Y002553D01*
X013990Y002553D01*
X014065Y002628D01*
X014065Y002778D01*
X013990Y002853D01*
X013915Y002393D02*
X013615Y002393D01*
X013915Y002393D02*
X014065Y002243D01*
X013915Y002092D01*
X013615Y002092D01*
X015968Y002104D02*
X015968Y002329D01*
X016043Y002404D01*
X016193Y002404D01*
X016268Y002329D01*
X016268Y002104D01*
X016418Y002104D02*
X015968Y002104D01*
X016268Y002254D02*
X016418Y002404D01*
X016418Y002565D02*
X016418Y002865D01*
X016418Y002715D02*
X015968Y002715D01*
X016118Y002565D01*
X017418Y002640D02*
X017493Y002565D01*
X017418Y002640D02*
X017418Y002790D01*
X017493Y002865D01*
X017568Y002865D01*
X017868Y002565D01*
X017868Y002865D01*
X017868Y002404D02*
X017718Y002254D01*
X017718Y002329D02*
X017718Y002104D01*
X017868Y002104D02*
X017418Y002104D01*
X017418Y002329D01*
X017493Y002404D01*
X017643Y002404D01*
X017718Y002329D01*
X016368Y004404D02*
X015918Y004404D01*
X015918Y004629D01*
X015993Y004704D01*
X016143Y004704D01*
X016218Y004629D01*
X016218Y004404D01*
X016218Y004554D02*
X016368Y004704D01*
X016293Y004865D02*
X016368Y004940D01*
X016368Y005090D01*
X016293Y005165D01*
X016218Y005165D01*
X016143Y005090D01*
X016143Y005015D01*
X016143Y005090D02*
X016068Y005165D01*
X015993Y005165D01*
X015918Y005090D01*
X015918Y004940D01*
X015993Y004865D01*
X015918Y006504D02*
X015918Y006729D01*
X015993Y006804D01*
X016143Y006804D01*
X016218Y006729D01*
X016218Y006504D01*
X016368Y006504D02*
X015918Y006504D01*
X016218Y006654D02*
X016368Y006804D01*
X016143Y006965D02*
X016143Y007265D01*
X015918Y007190D02*
X016143Y006965D01*
X016368Y007190D02*
X015918Y007190D01*
X015918Y009304D02*
X015918Y009529D01*
X015993Y009604D01*
X016143Y009604D01*
X016218Y009529D01*
X016218Y009304D01*
X016368Y009304D02*
X015918Y009304D01*
X016218Y009454D02*
X016368Y009604D01*
X016293Y009765D02*
X016368Y009840D01*
X016368Y009990D01*
X016293Y010065D01*
X016143Y010065D01*
X016068Y009990D01*
X016068Y009915D01*
X016143Y009765D01*
X015918Y009765D01*
X015918Y010065D01*
X017043Y011855D02*
X017194Y011855D01*
X017269Y011930D01*
X017429Y011855D02*
X017729Y012155D01*
X017729Y012230D01*
X017654Y012305D01*
X017504Y012305D01*
X017429Y012230D01*
X017269Y012230D02*
X017194Y012305D01*
X017043Y012305D01*
X016968Y012230D01*
X016968Y011930D01*
X017043Y011855D01*
X017429Y011855D02*
X017729Y011855D01*
X015451Y013526D02*
X015351Y013426D01*
X012045Y013426D01*
X011945Y013526D01*
X011856Y014696D01*
X011040Y015261D02*
X011040Y015434D01*
X010319Y014737D02*
X010241Y014737D01*
X008926Y014737D02*
X008847Y014737D01*
X008408Y014105D02*
X008408Y013655D01*
X008258Y013655D02*
X008558Y013655D01*
X008258Y013955D02*
X008408Y014105D01*
X008098Y014030D02*
X008023Y014105D01*
X007873Y014105D01*
X007798Y014030D01*
X007798Y013730D01*
X007873Y013655D01*
X008023Y013655D01*
X008098Y013730D01*
X009268Y012530D02*
X009268Y012230D01*
X009343Y012155D01*
X009494Y012155D01*
X009569Y012230D01*
X009729Y012380D02*
X010029Y012380D01*
X009954Y012155D02*
X009954Y012605D01*
X009729Y012380D01*
X009569Y012530D02*
X009494Y012605D01*
X009343Y012605D01*
X009268Y012530D01*
X008126Y015261D02*
X008126Y015434D01*
X008126Y016324D02*
X008126Y016745D01*
X008008Y016942D01*
X008126Y016745D02*
X008323Y016745D01*
X008323Y016824D01*
X008325Y016844D01*
X008330Y016864D01*
X008339Y016883D01*
X008351Y016900D01*
X008365Y016914D01*
X008382Y016926D01*
X008401Y016935D01*
X008421Y016940D01*
X008441Y016942D01*
X010725Y016942D01*
X010745Y016940D01*
X010765Y016935D01*
X010784Y016926D01*
X010801Y016914D01*
X010815Y016900D01*
X010827Y016883D01*
X010836Y016864D01*
X010841Y016844D01*
X010843Y016824D01*
X010843Y016745D01*
X011040Y016745D01*
X011158Y016942D01*
X011040Y016745D02*
X011040Y016324D01*
X013323Y015771D02*
X013623Y015771D01*
X013473Y015771D02*
X013473Y015320D01*
X013783Y015320D02*
X014084Y015320D01*
X013934Y015320D02*
X013934Y015771D01*
X013783Y015621D01*
X015541Y014696D02*
X015451Y013526D01*
X014659Y012675D02*
X014659Y012225D01*
X014509Y012225D02*
X014809Y012225D01*
X014509Y012525D02*
X014659Y012675D01*
X014349Y012600D02*
X014349Y012450D01*
X014274Y012375D01*
X014049Y012375D01*
X014049Y012225D02*
X014049Y012675D01*
X014274Y012675D01*
X014349Y012600D01*
X013889Y012675D02*
X013738Y012675D01*
X013814Y012675D02*
X013814Y012300D01*
X013738Y012225D01*
X013663Y012225D01*
X013588Y012300D01*
X012025Y013715D02*
X012027Y013735D01*
X012033Y013753D01*
X012042Y013771D01*
X012054Y013786D01*
X012069Y013798D01*
X012087Y013807D01*
X012105Y013813D01*
X012125Y013815D01*
X012145Y013813D01*
X012163Y013807D01*
X012181Y013798D01*
X012196Y013786D01*
X012208Y013771D01*
X012217Y013753D01*
X012223Y013735D01*
X012225Y013715D01*
X012223Y013695D01*
X012217Y013677D01*
X012208Y013659D01*
X012196Y013644D01*
X012181Y013632D01*
X012163Y013623D01*
X012145Y013617D01*
X012125Y013615D01*
X012105Y013617D01*
X012087Y013623D01*
X012069Y013632D01*
X012054Y013644D01*
X012042Y013659D01*
X012033Y013677D01*
X012027Y013695D01*
X012025Y013715D01*
X002213Y013580D02*
X002215Y013679D01*
X002221Y013778D01*
X002231Y013877D01*
X002245Y013975D01*
X002262Y014073D01*
X002284Y014170D01*
X002310Y014266D01*
X002339Y014361D01*
X002372Y014454D01*
X002409Y014546D01*
X002449Y014637D01*
X002494Y014726D01*
X002541Y014813D01*
X002592Y014898D01*
X002647Y014981D01*
X002704Y015062D01*
X002765Y015140D01*
X002829Y015216D01*
X002896Y015289D01*
X002966Y015360D01*
X003038Y015427D01*
X003114Y015492D01*
X003191Y015554D01*
X003272Y015612D01*
X003354Y015668D01*
X003439Y015719D01*
X003525Y015768D01*
X003614Y015813D01*
X003704Y015854D01*
X003796Y015892D01*
X003889Y015926D01*
X003983Y015956D01*
X004079Y015983D01*
X004176Y016005D01*
X004273Y016024D01*
X004371Y016039D01*
X004470Y016050D01*
X004569Y016057D01*
X004668Y016060D01*
X004767Y016059D01*
X004867Y016054D01*
X004965Y016045D01*
X005064Y016032D01*
X005162Y016015D01*
X005259Y015995D01*
X005355Y015970D01*
X005450Y015942D01*
X005544Y015909D01*
X005636Y015874D01*
X005727Y015834D01*
X005817Y015791D01*
X005904Y015744D01*
X005990Y015694D01*
X006073Y015640D01*
X006155Y015583D01*
X006234Y015523D01*
X006310Y015460D01*
X006384Y015394D01*
X006455Y015325D01*
X006524Y015253D01*
X006589Y015178D01*
X006652Y015101D01*
X006711Y015022D01*
X006767Y014940D01*
X006820Y014856D01*
X006869Y014770D01*
X006915Y014682D01*
X006957Y014592D01*
X006996Y014500D01*
X007031Y014407D01*
X007062Y014313D01*
X007090Y014218D01*
X007113Y014121D01*
X007133Y014024D01*
X007149Y013926D01*
X007161Y013828D01*
X007169Y013729D01*
X007173Y013630D01*
X007173Y013530D01*
X007169Y013431D01*
X007161Y013332D01*
X007149Y013234D01*
X007133Y013136D01*
X007113Y013039D01*
X007090Y012942D01*
X007062Y012847D01*
X007031Y012753D01*
X006996Y012660D01*
X006957Y012568D01*
X006915Y012478D01*
X006869Y012390D01*
X006820Y012304D01*
X006767Y012220D01*
X006711Y012138D01*
X006652Y012059D01*
X006589Y011982D01*
X006524Y011907D01*
X006455Y011835D01*
X006384Y011766D01*
X006310Y011700D01*
X006234Y011637D01*
X006155Y011577D01*
X006073Y011520D01*
X005990Y011466D01*
X005904Y011416D01*
X005817Y011369D01*
X005727Y011326D01*
X005636Y011286D01*
X005544Y011251D01*
X005450Y011218D01*
X005355Y011190D01*
X005259Y011165D01*
X005162Y011145D01*
X005064Y011128D01*
X004965Y011115D01*
X004867Y011106D01*
X004767Y011101D01*
X004668Y011100D01*
X004569Y011103D01*
X004470Y011110D01*
X004371Y011121D01*
X004273Y011136D01*
X004176Y011155D01*
X004079Y011177D01*
X003983Y011204D01*
X003889Y011234D01*
X003796Y011268D01*
X003704Y011306D01*
X003614Y011347D01*
X003525Y011392D01*
X003439Y011441D01*
X003354Y011492D01*
X003272Y011548D01*
X003191Y011606D01*
X003114Y011668D01*
X003038Y011733D01*
X002966Y011800D01*
X002896Y011871D01*
X002829Y011944D01*
X002765Y012020D01*
X002704Y012098D01*
X002647Y012179D01*
X002592Y012262D01*
X002541Y012347D01*
X002494Y012434D01*
X002449Y012523D01*
X002409Y012614D01*
X002372Y012706D01*
X002339Y012799D01*
X002310Y012894D01*
X002284Y012990D01*
X002262Y013087D01*
X002245Y013185D01*
X002231Y013283D01*
X002221Y013382D01*
X002215Y013481D01*
X002213Y013580D01*
X002718Y011746D02*
X002793Y011746D01*
X003093Y011445D01*
X003168Y011445D01*
X003168Y011285D02*
X003018Y011135D01*
X003018Y011210D02*
X003018Y010985D01*
X003168Y010985D02*
X002718Y010985D01*
X002718Y011210D01*
X002793Y011285D01*
X002943Y011285D01*
X003018Y011210D01*
X002718Y011445D02*
X002718Y011746D01*
D13*
X004332Y012661D02*
X004409Y012584D01*
X004562Y012584D01*
X004639Y012661D01*
X004639Y012738D01*
X004562Y012814D01*
X004409Y012814D01*
X004332Y012891D01*
X004332Y012968D01*
X004409Y013045D01*
X004562Y013045D01*
X004639Y012968D01*
X004793Y012891D02*
X004946Y013045D01*
X004946Y012584D01*
X004793Y012584D02*
X005100Y012584D01*
X001267Y004660D02*
X001267Y004200D01*
X001420Y004200D02*
X001113Y004200D01*
X001113Y004507D02*
X001267Y004660D01*
D14*
X006823Y015494D02*
X006885Y015494D01*
X006947Y015556D01*
X006947Y015864D01*
X007008Y015864D02*
X006885Y015864D01*
X007130Y015741D02*
X007253Y015864D01*
X007253Y015494D01*
X007130Y015494D02*
X007377Y015494D01*
X006823Y015494D02*
X006761Y015556D01*
D15*
X013698Y015025D03*
D16*
X012088Y014775D03*
X015308Y014775D03*
D17*
X014198Y014775D03*
X013198Y014775D03*
D18*
X010443Y014130D02*
X010443Y013630D01*
X010441Y013604D01*
X010436Y013578D01*
X010428Y013553D01*
X010416Y013530D01*
X010402Y013508D01*
X010384Y013489D01*
X010365Y013471D01*
X010343Y013457D01*
X010320Y013445D01*
X010295Y013437D01*
X010269Y013432D01*
X010243Y013430D01*
X008943Y013430D01*
X008917Y013432D01*
X008891Y013437D01*
X008866Y013445D01*
X008843Y013457D01*
X008821Y013471D01*
X008802Y013489D01*
X008784Y013508D01*
X008770Y013530D01*
X008758Y013553D01*
X008750Y013578D01*
X008745Y013604D01*
X008743Y013630D01*
X008743Y014130D01*
X008745Y014156D01*
X008750Y014182D01*
X008758Y014207D01*
X008770Y014230D01*
X008784Y014252D01*
X008802Y014271D01*
X008821Y014289D01*
X008843Y014303D01*
X008866Y014315D01*
X008891Y014323D01*
X008917Y014328D01*
X008943Y014330D01*
X010243Y014330D01*
X010269Y014328D01*
X010295Y014323D01*
X010320Y014315D01*
X010343Y014303D01*
X010365Y014289D01*
X010384Y014271D01*
X010402Y014252D01*
X010416Y014230D01*
X010428Y014207D01*
X010436Y014182D01*
X010441Y014156D01*
X010443Y014130D01*
X010843Y011980D02*
X010593Y011730D01*
X010593Y011230D01*
X010843Y010980D01*
X011343Y010980D01*
X011593Y011230D01*
X011843Y010980D01*
X012343Y010980D01*
X012593Y011230D01*
X012593Y011730D01*
X012343Y011980D01*
X011843Y011980D01*
X011593Y011730D01*
X011593Y011230D01*
X011593Y011730D02*
X011343Y011980D01*
X010843Y011980D01*
X010443Y011730D02*
X010443Y011230D01*
X010441Y011204D01*
X010436Y011178D01*
X010428Y011153D01*
X010416Y011130D01*
X010402Y011108D01*
X010384Y011089D01*
X010365Y011071D01*
X010343Y011057D01*
X010320Y011045D01*
X010295Y011037D01*
X010269Y011032D01*
X010243Y011030D01*
X008943Y011030D01*
X008917Y011032D01*
X008891Y011037D01*
X008866Y011045D01*
X008843Y011057D01*
X008821Y011071D01*
X008802Y011089D01*
X008784Y011108D01*
X008770Y011130D01*
X008758Y011153D01*
X008750Y011178D01*
X008745Y011204D01*
X008743Y011230D01*
X008743Y011730D01*
X008745Y011756D01*
X008750Y011782D01*
X008758Y011807D01*
X008770Y011830D01*
X008784Y011852D01*
X008802Y011871D01*
X008821Y011889D01*
X008843Y011903D01*
X008866Y011915D01*
X008891Y011923D01*
X008917Y011928D01*
X008943Y011930D01*
X010243Y011930D01*
X010269Y011928D01*
X010295Y011923D01*
X010320Y011915D01*
X010343Y011903D01*
X010365Y011889D01*
X010384Y011871D01*
X010402Y011852D01*
X010416Y011830D01*
X010428Y011807D01*
X010436Y011782D01*
X010441Y011756D01*
X010443Y011730D01*
X012593Y011730D02*
X012843Y011980D01*
X013343Y011980D01*
X013593Y011730D01*
X013843Y011980D01*
X014343Y011980D01*
X014593Y011730D01*
X014843Y011980D01*
X015343Y011980D01*
X015593Y011730D01*
X015843Y011980D01*
X016343Y011980D01*
X016593Y011730D01*
X016593Y011230D01*
X016343Y010980D01*
X015843Y010980D01*
X015593Y011230D01*
X015343Y010980D01*
X014843Y010980D01*
X014593Y011230D01*
X014343Y010980D01*
X013843Y010980D01*
X013593Y011230D01*
X013343Y010980D01*
X012843Y010980D01*
X012593Y011230D01*
X013593Y011230D02*
X013593Y011730D01*
X014593Y011730D02*
X014593Y011230D01*
X015593Y011230D02*
X015593Y011730D01*
X015793Y013380D02*
X015795Y013443D01*
X015801Y013505D01*
X015811Y013567D01*
X015824Y013629D01*
X015842Y013689D01*
X015863Y013748D01*
X015888Y013806D01*
X015917Y013862D01*
X015949Y013916D01*
X015984Y013968D01*
X016022Y014017D01*
X016064Y014065D01*
X016108Y014109D01*
X016156Y014151D01*
X016205Y014189D01*
X016257Y014224D01*
X016311Y014256D01*
X016367Y014285D01*
X016425Y014310D01*
X016484Y014331D01*
X016544Y014349D01*
X016606Y014362D01*
X016668Y014372D01*
X016730Y014378D01*
X016793Y014380D01*
X016856Y014378D01*
X016918Y014372D01*
X016980Y014362D01*
X017042Y014349D01*
X017102Y014331D01*
X017161Y014310D01*
X017219Y014285D01*
X017275Y014256D01*
X017329Y014224D01*
X017381Y014189D01*
X017430Y014151D01*
X017478Y014109D01*
X017522Y014065D01*
X017564Y014017D01*
X017602Y013968D01*
X017637Y013916D01*
X017669Y013862D01*
X017698Y013806D01*
X017723Y013748D01*
X017744Y013689D01*
X017762Y013629D01*
X017775Y013567D01*
X017785Y013505D01*
X017791Y013443D01*
X017793Y013380D01*
X017791Y013317D01*
X017785Y013255D01*
X017775Y013193D01*
X017762Y013131D01*
X017744Y013071D01*
X017723Y013012D01*
X017698Y012954D01*
X017669Y012898D01*
X017637Y012844D01*
X017602Y012792D01*
X017564Y012743D01*
X017522Y012695D01*
X017478Y012651D01*
X017430Y012609D01*
X017381Y012571D01*
X017329Y012536D01*
X017275Y012504D01*
X017219Y012475D01*
X017161Y012450D01*
X017102Y012429D01*
X017042Y012411D01*
X016980Y012398D01*
X016918Y012388D01*
X016856Y012382D01*
X016793Y012380D01*
X016730Y012382D01*
X016668Y012388D01*
X016606Y012398D01*
X016544Y012411D01*
X016484Y012429D01*
X016425Y012450D01*
X016367Y012475D01*
X016311Y012504D01*
X016257Y012536D01*
X016205Y012571D01*
X016156Y012609D01*
X016108Y012651D01*
X016064Y012695D01*
X016022Y012743D01*
X015984Y012792D01*
X015949Y012844D01*
X015917Y012898D01*
X015888Y012954D01*
X015863Y013012D01*
X015842Y013071D01*
X015824Y013131D01*
X015811Y013193D01*
X015801Y013255D01*
X015795Y013317D01*
X015793Y013380D01*
X016243Y013780D02*
X016243Y013880D01*
X016243Y013980D01*
X016243Y013880D02*
X016343Y013880D01*
X016243Y013880D02*
X016143Y013880D01*
X016593Y009180D02*
X016595Y009224D01*
X016601Y009268D01*
X016611Y009311D01*
X016624Y009353D01*
X016641Y009394D01*
X016662Y009433D01*
X016686Y009470D01*
X016713Y009505D01*
X016743Y009537D01*
X016776Y009567D01*
X016812Y009593D01*
X016849Y009617D01*
X016889Y009636D01*
X016930Y009653D01*
X016973Y009665D01*
X017016Y009674D01*
X017060Y009679D01*
X017104Y009680D01*
X017148Y009677D01*
X017192Y009670D01*
X017235Y009659D01*
X017277Y009645D01*
X017317Y009627D01*
X017356Y009605D01*
X017392Y009581D01*
X017426Y009553D01*
X017458Y009522D01*
X017487Y009488D01*
X017513Y009452D01*
X017535Y009414D01*
X017554Y009374D01*
X017569Y009332D01*
X017581Y009290D01*
X017589Y009246D01*
X017593Y009202D01*
X017593Y009158D01*
X017589Y009114D01*
X017581Y009070D01*
X017569Y009028D01*
X017554Y008986D01*
X017535Y008946D01*
X017513Y008908D01*
X017487Y008872D01*
X017458Y008838D01*
X017426Y008807D01*
X017392Y008779D01*
X017356Y008755D01*
X017317Y008733D01*
X017277Y008715D01*
X017235Y008701D01*
X017192Y008690D01*
X017148Y008683D01*
X017104Y008680D01*
X017060Y008681D01*
X017016Y008686D01*
X016973Y008695D01*
X016930Y008707D01*
X016889Y008724D01*
X016849Y008743D01*
X016812Y008767D01*
X016776Y008793D01*
X016743Y008823D01*
X016713Y008855D01*
X016686Y008890D01*
X016662Y008927D01*
X016641Y008966D01*
X016624Y009007D01*
X016611Y009049D01*
X016601Y009092D01*
X016595Y009136D01*
X016593Y009180D01*
X016593Y007180D02*
X016595Y007224D01*
X016601Y007268D01*
X016611Y007311D01*
X016624Y007353D01*
X016641Y007394D01*
X016662Y007433D01*
X016686Y007470D01*
X016713Y007505D01*
X016743Y007537D01*
X016776Y007567D01*
X016812Y007593D01*
X016849Y007617D01*
X016889Y007636D01*
X016930Y007653D01*
X016973Y007665D01*
X017016Y007674D01*
X017060Y007679D01*
X017104Y007680D01*
X017148Y007677D01*
X017192Y007670D01*
X017235Y007659D01*
X017277Y007645D01*
X017317Y007627D01*
X017356Y007605D01*
X017392Y007581D01*
X017426Y007553D01*
X017458Y007522D01*
X017487Y007488D01*
X017513Y007452D01*
X017535Y007414D01*
X017554Y007374D01*
X017569Y007332D01*
X017581Y007290D01*
X017589Y007246D01*
X017593Y007202D01*
X017593Y007158D01*
X017589Y007114D01*
X017581Y007070D01*
X017569Y007028D01*
X017554Y006986D01*
X017535Y006946D01*
X017513Y006908D01*
X017487Y006872D01*
X017458Y006838D01*
X017426Y006807D01*
X017392Y006779D01*
X017356Y006755D01*
X017317Y006733D01*
X017277Y006715D01*
X017235Y006701D01*
X017192Y006690D01*
X017148Y006683D01*
X017104Y006680D01*
X017060Y006681D01*
X017016Y006686D01*
X016973Y006695D01*
X016930Y006707D01*
X016889Y006724D01*
X016849Y006743D01*
X016812Y006767D01*
X016776Y006793D01*
X016743Y006823D01*
X016713Y006855D01*
X016686Y006890D01*
X016662Y006927D01*
X016641Y006966D01*
X016624Y007007D01*
X016611Y007049D01*
X016601Y007092D01*
X016595Y007136D01*
X016593Y007180D01*
X016593Y005180D02*
X016595Y005224D01*
X016601Y005268D01*
X016611Y005311D01*
X016624Y005353D01*
X016641Y005394D01*
X016662Y005433D01*
X016686Y005470D01*
X016713Y005505D01*
X016743Y005537D01*
X016776Y005567D01*
X016812Y005593D01*
X016849Y005617D01*
X016889Y005636D01*
X016930Y005653D01*
X016973Y005665D01*
X017016Y005674D01*
X017060Y005679D01*
X017104Y005680D01*
X017148Y005677D01*
X017192Y005670D01*
X017235Y005659D01*
X017277Y005645D01*
X017317Y005627D01*
X017356Y005605D01*
X017392Y005581D01*
X017426Y005553D01*
X017458Y005522D01*
X017487Y005488D01*
X017513Y005452D01*
X017535Y005414D01*
X017554Y005374D01*
X017569Y005332D01*
X017581Y005290D01*
X017589Y005246D01*
X017593Y005202D01*
X017593Y005158D01*
X017589Y005114D01*
X017581Y005070D01*
X017569Y005028D01*
X017554Y004986D01*
X017535Y004946D01*
X017513Y004908D01*
X017487Y004872D01*
X017458Y004838D01*
X017426Y004807D01*
X017392Y004779D01*
X017356Y004755D01*
X017317Y004733D01*
X017277Y004715D01*
X017235Y004701D01*
X017192Y004690D01*
X017148Y004683D01*
X017104Y004680D01*
X017060Y004681D01*
X017016Y004686D01*
X016973Y004695D01*
X016930Y004707D01*
X016889Y004724D01*
X016849Y004743D01*
X016812Y004767D01*
X016776Y004793D01*
X016743Y004823D01*
X016713Y004855D01*
X016686Y004890D01*
X016662Y004927D01*
X016641Y004966D01*
X016624Y005007D01*
X016611Y005049D01*
X016601Y005092D01*
X016595Y005136D01*
X016593Y005180D01*
X016593Y003180D02*
X016595Y003224D01*
X016601Y003268D01*
X016611Y003311D01*
X016624Y003353D01*
X016641Y003394D01*
X016662Y003433D01*
X016686Y003470D01*
X016713Y003505D01*
X016743Y003537D01*
X016776Y003567D01*
X016812Y003593D01*
X016849Y003617D01*
X016889Y003636D01*
X016930Y003653D01*
X016973Y003665D01*
X017016Y003674D01*
X017060Y003679D01*
X017104Y003680D01*
X017148Y003677D01*
X017192Y003670D01*
X017235Y003659D01*
X017277Y003645D01*
X017317Y003627D01*
X017356Y003605D01*
X017392Y003581D01*
X017426Y003553D01*
X017458Y003522D01*
X017487Y003488D01*
X017513Y003452D01*
X017535Y003414D01*
X017554Y003374D01*
X017569Y003332D01*
X017581Y003290D01*
X017589Y003246D01*
X017593Y003202D01*
X017593Y003158D01*
X017589Y003114D01*
X017581Y003070D01*
X017569Y003028D01*
X017554Y002986D01*
X017535Y002946D01*
X017513Y002908D01*
X017487Y002872D01*
X017458Y002838D01*
X017426Y002807D01*
X017392Y002779D01*
X017356Y002755D01*
X017317Y002733D01*
X017277Y002715D01*
X017235Y002701D01*
X017192Y002690D01*
X017148Y002683D01*
X017104Y002680D01*
X017060Y002681D01*
X017016Y002686D01*
X016973Y002695D01*
X016930Y002707D01*
X016889Y002724D01*
X016849Y002743D01*
X016812Y002767D01*
X016776Y002793D01*
X016743Y002823D01*
X016713Y002855D01*
X016686Y002890D01*
X016662Y002927D01*
X016641Y002966D01*
X016624Y003007D01*
X016611Y003049D01*
X016601Y003092D01*
X016595Y003136D01*
X016593Y003180D01*
X015043Y003180D02*
X015045Y003224D01*
X015051Y003268D01*
X015061Y003311D01*
X015074Y003353D01*
X015091Y003394D01*
X015112Y003433D01*
X015136Y003470D01*
X015163Y003505D01*
X015193Y003537D01*
X015226Y003567D01*
X015262Y003593D01*
X015299Y003617D01*
X015339Y003636D01*
X015380Y003653D01*
X015423Y003665D01*
X015466Y003674D01*
X015510Y003679D01*
X015554Y003680D01*
X015598Y003677D01*
X015642Y003670D01*
X015685Y003659D01*
X015727Y003645D01*
X015767Y003627D01*
X015806Y003605D01*
X015842Y003581D01*
X015876Y003553D01*
X015908Y003522D01*
X015937Y003488D01*
X015963Y003452D01*
X015985Y003414D01*
X016004Y003374D01*
X016019Y003332D01*
X016031Y003290D01*
X016039Y003246D01*
X016043Y003202D01*
X016043Y003158D01*
X016039Y003114D01*
X016031Y003070D01*
X016019Y003028D01*
X016004Y002986D01*
X015985Y002946D01*
X015963Y002908D01*
X015937Y002872D01*
X015908Y002838D01*
X015876Y002807D01*
X015842Y002779D01*
X015806Y002755D01*
X015767Y002733D01*
X015727Y002715D01*
X015685Y002701D01*
X015642Y002690D01*
X015598Y002683D01*
X015554Y002680D01*
X015510Y002681D01*
X015466Y002686D01*
X015423Y002695D01*
X015380Y002707D01*
X015339Y002724D01*
X015299Y002743D01*
X015262Y002767D01*
X015226Y002793D01*
X015193Y002823D01*
X015163Y002855D01*
X015136Y002890D01*
X015112Y002927D01*
X015091Y002966D01*
X015074Y003007D01*
X015061Y003049D01*
X015051Y003092D01*
X015045Y003136D01*
X015043Y003180D01*
X013443Y001630D02*
X013443Y001430D01*
X013443Y001630D02*
X013243Y001630D01*
X012743Y001630D02*
X012543Y001630D01*
X012543Y001430D01*
X012443Y001430D02*
X012443Y001630D01*
X012243Y001630D01*
X011743Y001630D02*
X011543Y001630D01*
X011543Y001430D01*
X011443Y001430D02*
X011443Y001630D01*
X011243Y001630D01*
X010743Y001630D02*
X010543Y001630D01*
X010543Y001430D01*
X010443Y001430D02*
X010443Y001630D01*
X010243Y001630D01*
X009743Y001630D02*
X009543Y001630D01*
X009543Y001430D01*
X009443Y001430D02*
X009443Y001630D01*
X009243Y001630D01*
X008743Y001630D02*
X008543Y001630D01*
X008543Y001430D01*
X008443Y001430D02*
X008443Y001630D01*
X008243Y001630D01*
X007743Y001630D02*
X007543Y001630D01*
X007543Y001430D01*
X007443Y001430D02*
X007443Y001630D01*
X007243Y001630D01*
X006743Y001630D02*
X006543Y001630D01*
X006543Y001430D01*
X006443Y001430D02*
X006443Y001630D01*
X006243Y001630D01*
X005743Y001630D02*
X005543Y001630D01*
X005543Y001430D01*
X005543Y000930D02*
X005543Y000730D01*
X005743Y000730D01*
X006243Y000730D02*
X006443Y000730D01*
X006443Y000930D01*
X006543Y000930D02*
X006543Y000730D01*
X006743Y000730D01*
X007243Y000730D02*
X007443Y000730D01*
X007443Y000930D01*
X007543Y000930D02*
X007543Y000730D01*
X007743Y000730D01*
X008243Y000730D02*
X008443Y000730D01*
X008443Y000930D01*
X008543Y000930D02*
X008543Y000730D01*
X008743Y000730D01*
X009243Y000730D02*
X009443Y000730D01*
X009443Y000930D01*
X009543Y000930D02*
X009543Y000730D01*
X009743Y000730D01*
X010243Y000730D02*
X010443Y000730D01*
X010443Y000930D01*
X010543Y000930D02*
X010543Y000730D01*
X010743Y000730D01*
X011243Y000730D02*
X011443Y000730D01*
X011443Y000930D01*
X011543Y000930D02*
X011543Y000730D01*
X011743Y000730D01*
X012243Y000730D02*
X012443Y000730D01*
X012443Y000930D01*
X012543Y000930D02*
X012543Y000730D01*
X012743Y000730D01*
X013243Y000730D02*
X013443Y000730D01*
X013443Y000930D01*
X010443Y002830D02*
X010443Y003330D01*
X010441Y003356D01*
X010436Y003382D01*
X010428Y003407D01*
X010416Y003430D01*
X010402Y003452D01*
X010384Y003471D01*
X010365Y003489D01*
X010343Y003503D01*
X010320Y003515D01*
X010295Y003523D01*
X010269Y003528D01*
X010243Y003530D01*
X008943Y003530D01*
X008917Y003528D01*
X008891Y003523D01*
X008866Y003515D01*
X008843Y003503D01*
X008821Y003489D01*
X008802Y003471D01*
X008784Y003452D01*
X008770Y003430D01*
X008758Y003407D01*
X008750Y003382D01*
X008745Y003356D01*
X008743Y003330D01*
X008743Y002830D01*
X008745Y002804D01*
X008750Y002778D01*
X008758Y002753D01*
X008770Y002730D01*
X008784Y002708D01*
X008802Y002689D01*
X008821Y002671D01*
X008843Y002657D01*
X008866Y002645D01*
X008891Y002637D01*
X008917Y002632D01*
X008943Y002630D01*
X010243Y002630D01*
X010269Y002632D01*
X010295Y002637D01*
X010320Y002645D01*
X010343Y002657D01*
X010365Y002671D01*
X010384Y002689D01*
X010402Y002708D01*
X010416Y002730D01*
X010428Y002753D01*
X010436Y002778D01*
X010441Y002804D01*
X010443Y002830D01*
X004493Y002280D02*
X004495Y002324D01*
X004501Y002368D01*
X004511Y002411D01*
X004524Y002453D01*
X004541Y002494D01*
X004562Y002533D01*
X004586Y002570D01*
X004613Y002605D01*
X004643Y002637D01*
X004676Y002667D01*
X004712Y002693D01*
X004749Y002717D01*
X004789Y002736D01*
X004830Y002753D01*
X004873Y002765D01*
X004916Y002774D01*
X004960Y002779D01*
X005004Y002780D01*
X005048Y002777D01*
X005092Y002770D01*
X005135Y002759D01*
X005177Y002745D01*
X005217Y002727D01*
X005256Y002705D01*
X005292Y002681D01*
X005326Y002653D01*
X005358Y002622D01*
X005387Y002588D01*
X005413Y002552D01*
X005435Y002514D01*
X005454Y002474D01*
X005469Y002432D01*
X005481Y002390D01*
X005489Y002346D01*
X005493Y002302D01*
X005493Y002258D01*
X005489Y002214D01*
X005481Y002170D01*
X005469Y002128D01*
X005454Y002086D01*
X005435Y002046D01*
X005413Y002008D01*
X005387Y001972D01*
X005358Y001938D01*
X005326Y001907D01*
X005292Y001879D01*
X005256Y001855D01*
X005217Y001833D01*
X005177Y001815D01*
X005135Y001801D01*
X005092Y001790D01*
X005048Y001783D01*
X005004Y001780D01*
X004960Y001781D01*
X004916Y001786D01*
X004873Y001795D01*
X004830Y001807D01*
X004789Y001824D01*
X004749Y001843D01*
X004712Y001867D01*
X004676Y001893D01*
X004643Y001923D01*
X004613Y001955D01*
X004586Y001990D01*
X004562Y002027D01*
X004541Y002066D01*
X004524Y002107D01*
X004511Y002149D01*
X004501Y002192D01*
X004495Y002236D01*
X004493Y002280D01*
X001593Y011380D02*
X001595Y011424D01*
X001601Y011468D01*
X001611Y011511D01*
X001624Y011553D01*
X001641Y011594D01*
X001662Y011633D01*
X001686Y011670D01*
X001713Y011705D01*
X001743Y011737D01*
X001776Y011767D01*
X001812Y011793D01*
X001849Y011817D01*
X001889Y011836D01*
X001930Y011853D01*
X001973Y011865D01*
X002016Y011874D01*
X002060Y011879D01*
X002104Y011880D01*
X002148Y011877D01*
X002192Y011870D01*
X002235Y011859D01*
X002277Y011845D01*
X002317Y011827D01*
X002356Y011805D01*
X002392Y011781D01*
X002426Y011753D01*
X002458Y011722D01*
X002487Y011688D01*
X002513Y011652D01*
X002535Y011614D01*
X002554Y011574D01*
X002569Y011532D01*
X002581Y011490D01*
X002589Y011446D01*
X002593Y011402D01*
X002593Y011358D01*
X002589Y011314D01*
X002581Y011270D01*
X002569Y011228D01*
X002554Y011186D01*
X002535Y011146D01*
X002513Y011108D01*
X002487Y011072D01*
X002458Y011038D01*
X002426Y011007D01*
X002392Y010979D01*
X002356Y010955D01*
X002317Y010933D01*
X002277Y010915D01*
X002235Y010901D01*
X002192Y010890D01*
X002148Y010883D01*
X002104Y010880D01*
X002060Y010881D01*
X002016Y010886D01*
X001973Y010895D01*
X001930Y010907D01*
X001889Y010924D01*
X001849Y010943D01*
X001812Y010967D01*
X001776Y010993D01*
X001743Y011023D01*
X001713Y011055D01*
X001686Y011090D01*
X001662Y011127D01*
X001641Y011166D01*
X001624Y011207D01*
X001611Y011249D01*
X001601Y011292D01*
X001595Y011336D01*
X001593Y011380D01*
D19*
X009473Y011180D02*
X009473Y011780D01*
X009723Y011780D02*
X009723Y011180D01*
X009713Y013580D02*
X009713Y014180D01*
X009463Y014180D02*
X009463Y013580D01*
X009473Y003380D02*
X009473Y002780D01*
X009723Y002780D02*
X009723Y003380D01*
D20*
X004993Y002880D02*
X004993Y002680D01*
X002093Y011780D02*
X002093Y011980D01*
X015543Y002780D02*
X015543Y002580D01*
X017093Y002580D02*
X017093Y002780D01*
X017093Y004580D02*
X017093Y004780D01*
X017093Y006580D02*
X017093Y006780D01*
X017093Y008580D02*
X017093Y008780D01*
M02*
