G75*
%MOIN*%
%OFA0B0*%
%FSLAX24Y24*%
%IPPOS*%
%LPD*%
%AMOC8*
5,1,8,0,0,1.08239X$1,22.5*
%
%ADD10C,0.0000*%
%ADD11R,0.0157X0.0531*%
%ADD12R,0.0827X0.0630*%
%ADD13R,0.0709X0.0748*%
%ADD14R,0.0748X0.0748*%
D10*
X001093Y000180D02*
X001093Y016479D01*
X018022Y016479D01*
X018022Y000180D01*
X001093Y000180D01*
X001896Y001180D02*
X001898Y001207D01*
X001904Y001234D01*
X001913Y001260D01*
X001926Y001284D01*
X001942Y001307D01*
X001961Y001326D01*
X001983Y001343D01*
X002007Y001357D01*
X002032Y001367D01*
X002059Y001374D01*
X002086Y001377D01*
X002114Y001376D01*
X002141Y001371D01*
X002167Y001363D01*
X002191Y001351D01*
X002214Y001335D01*
X002235Y001317D01*
X002252Y001296D01*
X002267Y001272D01*
X002278Y001247D01*
X002286Y001221D01*
X002290Y001194D01*
X002290Y001166D01*
X002286Y001139D01*
X002278Y001113D01*
X002267Y001088D01*
X002252Y001064D01*
X002235Y001043D01*
X002214Y001025D01*
X002192Y001009D01*
X002167Y000997D01*
X002141Y000989D01*
X002114Y000984D01*
X002086Y000983D01*
X002059Y000986D01*
X002032Y000993D01*
X002007Y001003D01*
X001983Y001017D01*
X001961Y001034D01*
X001942Y001053D01*
X001926Y001076D01*
X001913Y001100D01*
X001904Y001126D01*
X001898Y001153D01*
X001896Y001180D01*
X001896Y015180D02*
X001898Y015207D01*
X001904Y015234D01*
X001913Y015260D01*
X001926Y015284D01*
X001942Y015307D01*
X001961Y015326D01*
X001983Y015343D01*
X002007Y015357D01*
X002032Y015367D01*
X002059Y015374D01*
X002086Y015377D01*
X002114Y015376D01*
X002141Y015371D01*
X002167Y015363D01*
X002191Y015351D01*
X002214Y015335D01*
X002235Y015317D01*
X002252Y015296D01*
X002267Y015272D01*
X002278Y015247D01*
X002286Y015221D01*
X002290Y015194D01*
X002290Y015166D01*
X002286Y015139D01*
X002278Y015113D01*
X002267Y015088D01*
X002252Y015064D01*
X002235Y015043D01*
X002214Y015025D01*
X002192Y015009D01*
X002167Y014997D01*
X002141Y014989D01*
X002114Y014984D01*
X002086Y014983D01*
X002059Y014986D01*
X002032Y014993D01*
X002007Y015003D01*
X001983Y015017D01*
X001961Y015034D01*
X001942Y015053D01*
X001926Y015076D01*
X001913Y015100D01*
X001904Y015126D01*
X001898Y015153D01*
X001896Y015180D01*
X016896Y015180D02*
X016898Y015207D01*
X016904Y015234D01*
X016913Y015260D01*
X016926Y015284D01*
X016942Y015307D01*
X016961Y015326D01*
X016983Y015343D01*
X017007Y015357D01*
X017032Y015367D01*
X017059Y015374D01*
X017086Y015377D01*
X017114Y015376D01*
X017141Y015371D01*
X017167Y015363D01*
X017191Y015351D01*
X017214Y015335D01*
X017235Y015317D01*
X017252Y015296D01*
X017267Y015272D01*
X017278Y015247D01*
X017286Y015221D01*
X017290Y015194D01*
X017290Y015166D01*
X017286Y015139D01*
X017278Y015113D01*
X017267Y015088D01*
X017252Y015064D01*
X017235Y015043D01*
X017214Y015025D01*
X017192Y015009D01*
X017167Y014997D01*
X017141Y014989D01*
X017114Y014984D01*
X017086Y014983D01*
X017059Y014986D01*
X017032Y014993D01*
X017007Y015003D01*
X016983Y015017D01*
X016961Y015034D01*
X016942Y015053D01*
X016926Y015076D01*
X016913Y015100D01*
X016904Y015126D01*
X016898Y015153D01*
X016896Y015180D01*
X016896Y001180D02*
X016898Y001207D01*
X016904Y001234D01*
X016913Y001260D01*
X016926Y001284D01*
X016942Y001307D01*
X016961Y001326D01*
X016983Y001343D01*
X017007Y001357D01*
X017032Y001367D01*
X017059Y001374D01*
X017086Y001377D01*
X017114Y001376D01*
X017141Y001371D01*
X017167Y001363D01*
X017191Y001351D01*
X017214Y001335D01*
X017235Y001317D01*
X017252Y001296D01*
X017267Y001272D01*
X017278Y001247D01*
X017286Y001221D01*
X017290Y001194D01*
X017290Y001166D01*
X017286Y001139D01*
X017278Y001113D01*
X017267Y001088D01*
X017252Y001064D01*
X017235Y001043D01*
X017214Y001025D01*
X017192Y001009D01*
X017167Y000997D01*
X017141Y000989D01*
X017114Y000984D01*
X017086Y000983D01*
X017059Y000986D01*
X017032Y000993D01*
X017007Y001003D01*
X016983Y001017D01*
X016961Y001034D01*
X016942Y001053D01*
X016926Y001076D01*
X016913Y001100D01*
X016904Y001126D01*
X016898Y001153D01*
X016896Y001180D01*
D11*
X010095Y014826D03*
X009839Y014826D03*
X009583Y014826D03*
X009327Y014826D03*
X009071Y014826D03*
D12*
X008363Y014875D03*
X010804Y014875D03*
D13*
X011158Y015879D03*
X008008Y015879D03*
D14*
X009111Y015879D03*
X010056Y015879D03*
M02*
